<svg width="121" height="97" viewBox="0 0 121 97" fill="none" xmlns="http://www.w3.org/2000/svg">
<path d="M22.6057 25.029V7.00813C22.6057 5.96692 22.7564 4.96575 23.108 4.00464H8.7911C3.96855 4.00464 0 7.16831 0 11.0128V29.0337C0 32.8782 3.96855 36.0418 8.7911 36.0418H10.6498L17.0799 42.8497C17.7831 43.5706 18.8381 44.0111 19.9432 44.0511H20.0939C21.1991 44.0511 22.2038 43.6907 22.9071 43.0099L30.4423 36.162C25.7705 33.8393 22.6057 29.7145 22.6057 25.029V25.029Z" fill="#000080"/>
<path d="M111.773 4.00464H97.4556C97.8073 4.96575 97.958 5.96692 97.958 7.00813V25.029C97.958 29.7145 94.7932 33.8393 90.1213 36.162L97.6566 43.0099C98.3599 43.6907 99.3646 44.0511 100.47 44.0511H100.62C101.726 44.0111 102.781 43.5706 103.484 42.8497L109.864 36.0418H111.773C116.595 36.0418 120.564 32.8782 120.564 29.0337V11.0128C120.564 7.16831 116.595 4.00464 111.773 4.00464V4.00464Z" fill="#000080"/>
<path d="M60.8726 40.0465C60.8274 40.0465 60.7772 40.0465 60.732 40.0465C59.5966 40.0104 58.5417 39.5699 57.8585 38.8451L51.4536 32.0372H39.5228C34.6751 32.0372 30.7317 28.8935 30.7317 25.0291V7.00814C30.7317 3.14365 34.6751 0 39.5228 0H82.2224C87.0701 0 91.0135 3.14365 91.0135 7.00814V25.0291C91.0135 28.8935 87.0701 32.0372 82.2224 32.0372H71.3717L63.7059 39.0213C62.9925 39.6741 61.9577 40.0465 60.8726 40.0465Z" fill="#000080"/>
<path d="M20.094 68.0789C25.6428 68.0789 30.1409 64.493 30.1409 60.0696C30.1409 55.6462 25.6428 52.0603 20.094 52.0603C14.5452 52.0603 10.047 55.6462 10.047 60.0696C10.047 64.493 14.5452 68.0789 20.094 68.0789Z" fill="#000080"/>
<path d="M33.5067 73.6856C28.4329 76.7291 25.1174 81.6148 25.1174 87.1012V88.1023H3.76761C1.70799 88.1023 0 86.7408 0 85.0989V83.0965C0 77.0095 6.17889 72.0837 13.8146 72.0837H26.3733C28.9855 72.0837 31.447 72.6844 33.5067 73.6856Z" fill="#000080"/>
<path d="M100.47 68.0789C106.018 68.0789 110.517 64.493 110.517 60.0696C110.517 55.6462 106.018 52.0603 100.47 52.0603C94.9208 52.0603 90.4226 55.6462 90.4226 60.0696C90.4226 64.493 94.9208 68.0789 100.47 68.0789Z" fill="#000080"/>
<path d="M120.563 83.0965V85.0989C120.563 86.7408 118.855 88.1023 116.795 88.1023H95.4456V87.1012C95.4456 81.6148 92.1301 76.7291 87.0564 73.6856C89.116 72.6844 91.5775 72.0837 94.1897 72.0837H106.748C114.384 72.0837 120.563 77.0095 120.563 83.0965Z" fill="#000080"/>
<path d="M60.2816 70.0811C68.6048 70.0811 75.3521 64.7023 75.3521 58.0672C75.3521 51.432 68.6048 46.0532 60.2816 46.0532C51.9585 46.0532 45.2112 51.432 45.2112 58.0672C45.2112 64.7023 51.9585 70.0811 60.2816 70.0811Z" fill="#000080"/>
<path d="M74.0965 76.0881H46.4673C38.8467 76.0881 32.6527 81.0259 32.6527 87.1009V93.1079C32.6527 94.7658 34.3406 96.1114 36.4203 96.1114H84.1435C86.2232 96.1114 87.9111 94.7658 87.9111 93.1079V87.1009C87.9111 81.0259 81.7171 76.0881 74.0965 76.0881Z" fill="#000080"/>
</svg>
